<?xml version="1.0" encoding="UTF-8" standalone="no"?>
<!-- Created with Inkscape (http://www.inkscape.org/) -->

<svg
   width="75.266541mm"
   height="79.064751mm"
   viewBox="0 0 75.266541 79.06475"
   version="1.1"
   id="svg1"
   xml:space="preserve"
   inkscape:version="1.3.2 (091e20e, 2023-11-25)"
   sodipodi:docname="mail.svg"
   xmlns:inkscape="http://www.inkscape.org/namespaces/inkscape"
   xmlns:sodipodi="http://sodipodi.sourceforge.net/DTD/sodipodi-0.dtd"
   xmlns="http://www.w3.org/2000/svg"
   xmlns:svg="http://www.w3.org/2000/svg"><sodipodi:namedview
     id="namedview1"
     pagecolor="#ffffff"
     bordercolor="#666666"
     borderopacity="1.0"
     inkscape:showpageshadow="2"
     inkscape:pageopacity="0.0"
     inkscape:pagecheckerboard="0"
     inkscape:deskcolor="#d1d1d1"
     inkscape:document-units="mm"
     inkscape:zoom="1.0602403"
     inkscape:cx="-448.48323"
     inkscape:cy="207.02854"
     inkscape:window-width="2560"
     inkscape:window-height="1412"
     inkscape:window-x="0"
     inkscape:window-y="28"
     inkscape:window-maximized="0"
     inkscape:current-layer="layer1" /><defs
     id="defs1" /><g
     inkscape:label="Layer 1"
     inkscape:groupmode="layer"
     id="layer1"
     transform="translate(-223.24443,-93.856435)"><path
       style="fill:none;fill-opacity:1;stroke:#6f2a3d;stroke-opacity:1"
       d="m 255.18182,172.5328 c -8.43211,-1.31388 -14.8175,-4.61688 -20.70372,-10.70949 -7.98237,-8.26226 -11.64872,-18.2007 -11.19645,-30.35046 0.39253,-10.54492 3.8729,-18.39357 11.53392,-26.01033 6.35138,-6.314701 12.79123,-9.692461 21.22857,-11.134561 2.78987,-0.47684 3.957,-0.53865 7.90345,-0.41853 5.30032,0.16134 8.24249,0.62753 12.1328,1.92248 11.49893,3.82759 19.12407,12.509171 21.78473,24.802901 0.85041,3.92938 0.86335,11.72477 0.0249,15.02984 -2.08085,8.2029 -7.7471,15.39681 -13.7637,17.47452 -2.54287,0.87812 -6.28029,0.87536 -8.06518,-0.006 -1.76463,-0.87132 -3.41631,-2.40897 -4.13642,-3.85086 l -0.6168,-1.23502 -1.95464,1.85672 c -3.96956,3.77069 -10.1344,5.69839 -15.34577,4.79852 -6.44941,-1.11365 -11.71781,-7.14911 -12.52304,-14.34635 -1.1102,-9.92315 4.1303,-20.5314 12.1375,-24.56975 5.84312,-2.94692 13.09237,-2.10052 17.09141,1.99555 l 1.36911,1.40233 0.33558,-1.96182 0.33558,-1.96182 h 5.12699 5.12699 l -0.13901,0.59531 c -0.21445,0.91842 -4.36166,22.61394 -4.66567,24.40781 -0.54101,3.19225 0.28882,5.15938 2.17647,5.15938 0.57619,0 1.45083,-0.16847 1.94363,-0.37437 2.64227,-1.10402 5.32591,-5.92891 6.76743,-12.16714 0.52534,-2.27341 0.57926,-3.03953 0.44578,-6.33331 -0.18301,-4.51589 -0.76704,-7.01892 -2.41766,-10.36164 -1.50252,-3.04281 -3.49781,-5.44405 -6.24176,-7.51167 -4.71586,-3.55351 -9.55623,-5.17398 -16.41174,-5.49438 -8.87163,-0.41461 -15.97287,2.34971 -22.25134,8.66185 -6.52082,6.55578 -9.49504,13.99676 -9.13937,22.86503 0.58871,14.6787 8.3558,25.03189 21.15457,28.19808 5.95453,1.47304 18.24215,0.67524 26.60879,-1.72766 1.98039,-0.56876 3.0325,-0.76212 3.09647,-0.56907 0.59565,1.79737 2.18749,8.78346 2.03592,8.93502 -0.33648,0.33649 -5.04804,1.50361 -8.32545,2.06234 -7.54417,1.28613 -17.51556,1.69742 -22.46291,0.92652 z m 7.8972,-28.71047 c 2.79271,-1.1973 5.51097,-5.13316 6.14621,-8.89931 0.35882,-2.12733 0.033,-4.84001 -0.77041,-6.41489 -0.70443,-1.3808 -2.42305,-2.84553 -3.76463,-3.20849 -1.62054,-0.43843 -4.33951,-0.18638 -5.74809,0.53286 -3.58851,1.83232 -6.38984,7.18016 -6.04055,11.53163 0.21423,2.66879 1.79003,5.38381 3.6972,6.37004 1.80155,0.93162 4.42952,0.96737 6.48027,0.0882 z"
       id="path1" /></g></svg>
