<?xml version="1.0" encoding="UTF-8" standalone="no"?>
<!-- Created with Inkscape (http://www.inkscape.org/) -->

<svg
   width="14.85616mm"
   height="19.843748mm"
   viewBox="0 0 14.85616 19.843748"
   version="1.1"
   id="svg1"
   xml:space="preserve"
   inkscape:version="1.3.2 (091e20e, 2023-11-25)"
   sodipodi:docname="parachute.svg"
   xmlns:inkscape="http://www.inkscape.org/namespaces/inkscape"
   xmlns:sodipodi="http://sodipodi.sourceforge.net/DTD/sodipodi-0.dtd"
   xmlns="http://www.w3.org/2000/svg"
   xmlns:svg="http://www.w3.org/2000/svg"><sodipodi:namedview
     id="namedview1"
     pagecolor="#ffffff"
     bordercolor="#666666"
     borderopacity="1.0"
     inkscape:showpageshadow="2"
     inkscape:pageopacity="0.0"
     inkscape:pagecheckerboard="0"
     inkscape:deskcolor="#d1d1d1"
     inkscape:document-units="mm"
     inkscape:zoom="0.33366667"
     inkscape:cx="-203.7962"
     inkscape:cy="349.15085"
     inkscape:window-width="2560"
     inkscape:window-height="1440"
     inkscape:window-x="0"
     inkscape:window-y="0"
     inkscape:window-maximized="0"
     inkscape:current-layer="layer1" /><defs
     id="defs1" /><g
     inkscape:label="Layer 1"
     inkscape:groupmode="layer"
     id="layer1"
     transform="translate(-588.5993,105.79963)"><path
       style="fill:#ffffff;stroke-width:0.162844;fill-opacity:1"
       d="m 595.81658,-86.092712 c -0.0939,-0.12408 -0.5029,-0.760333 -0.97628,-1.518776 -0.0887,-0.142183 -0.32361,-0.514873 -0.52193,-0.828198 -0.19833,-0.313327 -0.91317,-1.4428 -1.58854,-2.50994 -0.67537,-1.06714 -1.32963,-2.100127 -1.4539,-2.295524 -0.12428,-0.195398 -0.35307,-0.558848 -0.50843,-0.807669 -0.15536,-0.248821 -0.4489,-0.714148 -0.65231,-1.03406 -0.2034,-0.319912 -0.5991,-0.942976 -0.87932,-1.384587 l -0.50949,-0.802925 -0.072,-0.422342 c -0.0942,-0.552855 -0.0648,-1.489036 0.067,-2.129588 0.39981,-1.942969 1.5369,-3.646849 3.14668,-4.715149 0.90848,-0.6029 1.62872,-0.90343 2.71441,-1.13262 0.79293,-0.16739 2.09382,-0.16739 2.88675,0 0.29622,0.0625 0.68399,0.16149 0.86172,0.21991 2.67006,0.87764 4.62892,3.18364 5.0595,5.956144 0.085,0.547024 0.087,1.392734 0.004,1.86168 -0.0623,0.353894 -0.0737,0.375412 -0.82934,1.569012 -0.42141,0.665607 -0.87283,1.381407 -1.00317,1.590663 -0.13033,0.209258 -0.48352,0.765813 -0.78485,1.236793 -0.30133,0.470977 -0.61718,0.970303 -0.70189,1.109613 -0.0847,0.13931 -0.32287,0.51631 -0.52926,0.837779 -0.2064,0.321469 -0.46251,0.724625 -0.56915,0.895903 -0.10663,0.171278 -0.27171,0.43175 -0.36684,0.578828 -0.0951,0.147079 -0.6555,1.033265 -1.24528,1.969306 -0.58978,0.936039 -1.11152,1.745514 -1.15944,1.798833 -0.12443,0.138458 -0.26337,0.123076 -0.38913,-0.04309 z m 2.42202,-4.039297 c 0.53229,-0.841251 1.21876,-1.927014 1.52548,-2.412807 0.30671,-0.485792 0.60209,-0.951119 0.65641,-1.03406 0.0543,-0.08294 0.28764,-0.451324 0.51853,-0.81863 0.40396,-0.642624 0.5625,-0.891954 0.86303,-1.357203 0.22877,-0.354155 0.75329,-1.189093 0.91106,-1.450238 l 0.1473,-0.243834 -0.10804,-0.213204 c -0.24225,-0.478071 -0.77072,-0.780583 -1.27207,-0.728182 -0.3261,0.03408 -0.53047,0.125187 -0.76427,0.340695 -0.23933,0.220608 -0.26041,0.261158 -0.53494,1.029018 -0.12181,0.340701 -0.38612,1.075089 -0.58736,1.631973 -0.20124,0.556884 -0.46246,1.283959 -0.58048,1.615719 -0.11803,0.331761 -0.28274,0.787394 -0.36603,1.012518 -0.0833,0.225122 -0.25705,0.709839 -0.38612,1.077145 -0.12907,0.367307 -0.26189,0.735691 -0.29515,0.81863 -0.0333,0.08294 -0.12105,0.3253 -0.19508,0.538573 -0.074,0.213275 -0.16128,0.455633 -0.19389,0.538575 -0.0326,0.08294 -0.12039,0.325297 -0.19508,0.538572 -0.0747,0.213275 -0.17283,0.490289 -0.21809,0.61559 -0.10815,0.29933 -0.1032,0.368161 0.0131,0.181498 0.0516,-0.08294 0.52943,-0.839097 1.06172,-1.680348 z m -3.29091,1.669576 c -0.0156,-0.05332 -0.14108,-0.407161 -0.2788,-0.786316 -0.13773,-0.379156 -0.31164,-0.863872 -0.38649,-1.077147 -0.0749,-0.213273 -0.16262,-0.455631 -0.19504,-0.538573 -0.0324,-0.08294 -0.1584,-0.431934 -0.27994,-0.775544 -0.12154,-0.34361 -0.2957,-0.828325 -0.38702,-1.077146 -0.0913,-0.248821 -0.2271,-0.626899 -0.30172,-0.840174 -0.0746,-0.213274 -0.16167,-0.455632 -0.19344,-0.538573 -0.0318,-0.08294 -0.11913,-0.325297 -0.19414,-0.538573 -0.075,-0.213275 -0.16305,-0.455632 -0.19564,-0.538572 -0.0646,-0.16436 -0.36453,-0.999866 -0.58006,-1.615718 -0.31158,-0.890269 -0.37453,-1.023625 -0.57648,-1.221313 -0.49397,-0.483518 -1.25262,-0.511415 -1.74986,-0.06435 -0.21092,0.189632 -0.35523,0.386953 -0.40585,0.554945 -0.0193,0.06409 0.078,0.250939 0.35895,0.689374 0.212,0.3308 0.6109,0.960144 0.88645,1.398543 0.27555,0.438399 0.7348,1.165472 1.02054,1.615719 0.28575,0.450246 0.7273,1.148237 0.98122,1.551089 0.25392,0.402853 0.88364,1.401368 1.39938,2.218921 0.51573,0.817553 0.96509,1.530085 0.99857,1.583404 0.0335,0.05332 0.0714,0.09694 0.0843,0.09694 0.0129,0 0.0107,-0.04362 -0.005,-0.09694 z m 1.15779,-0.355458 c 0.0145,-0.16588 0.0551,-0.534264 0.0902,-0.81863 0.0351,-0.284367 0.094,-0.769082 0.13095,-1.077148 0.0369,-0.308063 0.0962,-0.802472 0.13174,-1.098687 0.0355,-0.296215 0.10264,-0.858485 0.14916,-1.24949 0.0815,-0.685162 0.17656,-1.477077 0.25852,-2.154291 0.33497,-2.767693 0.31349,-2.497885 0.21072,-2.647464 -0.12743,-0.185456 -0.41176,-0.390607 -0.65386,-0.471772 -0.46364,-0.155436 -0.91529,-0.04275 -1.2934,0.322689 l -0.25007,0.241703 0.0271,0.23259 c 0.0149,0.127925 0.0544,0.45556 0.0879,0.728077 0.0335,0.272518 0.10005,0.825094 0.14794,1.227948 0.12193,1.025701 0.23669,1.982157 0.36837,3.069865 0.0366,0.302139 0.0953,0.791702 0.13058,1.087917 0.0353,0.296215 0.0911,0.761542 0.12409,1.03406 0.033,0.272518 0.0924,0.786317 0.13205,1.141775 0.0396,0.355458 0.0814,0.694485 0.0928,0.753393 0.0329,0.169521 0.0848,0.02425 0.11519,-0.322535 z m -0.63566,0.05386 c -0.0157,-0.171805 -0.0563,-0.535342 -0.09,-0.80786 -0.0583,-0.470695 -0.10393,-0.848982 -0.25721,-2.132747 -0.0368,-0.308064 -0.0953,-0.792781 -0.13012,-1.077147 -0.0348,-0.284367 -0.0942,-0.778776 -0.13191,-1.098688 -0.0378,-0.319912 -0.0944,-0.78524 -0.12591,-1.03406 -0.0315,-0.248821 -0.0583,-0.536445 -0.0595,-0.639165 -10e-4,-0.102719 -0.0212,-0.248134 -0.0445,-0.323143 -0.0232,-0.07501 -0.054,-0.262407 -0.0683,-0.41644 -0.12609,-1.358862 -0.18873,-1.582532 -0.51231,-1.829338 -0.19021,-0.145076 -0.58004,-0.281867 -0.80329,-0.281867 -0.36199,0 -0.83352,0.235394 -1.03316,0.515767 -0.0857,0.120411 -0.0875,0.139373 -0.0286,0.31247 0.0569,0.167086 0.5043,1.412009 0.99926,2.78034 0.32116,0.887845 0.55444,1.53551 0.96599,2.681955 0.21692,0.604279 0.48028,1.336261 0.58524,1.626627 0.31052,0.859058 0.56418,1.567842 0.64757,1.809468 0.0429,0.12441 0.0864,0.226201 0.0967,0.226201 0.0102,0 0.006,-0.140567 -0.01,-0.312373 z m 1.28099,-0.140029 c 0.0833,-0.236971 0.29055,-0.818631 0.46059,-1.292575 0.17003,-0.473943 0.48289,-1.346431 0.69524,-1.938863 0.21235,-0.59243 0.41277,-1.145006 0.44538,-1.227945 0.0326,-0.08294 0.1177,-0.315604 0.1891,-0.51703 0.28567,-0.805846 0.53855,-1.508984 0.69732,-1.938863 0.0919,-0.248821 0.25621,-0.704454 0.36513,-1.012517 0.10893,-0.308064 0.22751,-0.642041 0.26351,-0.74217 0.0624,-0.173553 0.061,-0.18832 -0.0301,-0.316204 -0.20602,-0.289326 -0.66134,-0.514259 -1.04098,-0.514259 -0.21536,0 -0.60707,0.138989 -0.7944,0.281867 -0.0814,0.06208 -0.19359,0.184017 -0.24932,0.270963 -0.10994,0.17152 -0.0956,0.07547 -0.43469,2.91558 -0.034,0.284367 -0.0919,0.769082 -0.12884,1.077145 -0.0369,0.308064 -0.0949,0.792779 -0.12884,1.077146 -0.0339,0.284366 -0.0923,0.769083 -0.12967,1.077147 -0.0374,0.308063 -0.097,0.802472 -0.13243,1.098688 -0.0355,0.296215 -0.0921,0.761542 -0.12586,1.034059 -0.083,0.669589 -0.12367,1.146382 -0.0957,1.120233 0.0127,-0.01186 0.0912,-0.21543 0.1745,-0.452402 z"
       id="path1"
       sodipodi:nodetypes="sssssssscssssssssssssssssssssssssscsssssssssssssssssssssssssssssssssssssssssssssssscssssssssssssssscsssssssssssssssssssssssssssssssss" /></g></svg>
